<svg version="1" xmlns="http://www.w3.org/2000/svg" width="682.667" height="682.667" viewBox="0 0 512.000000 512.000000"><path d="M168.5 42.6c-12.3 1.6-18.7 2.9-26 5.4-66 22.3-122.1 105-138 203.2-6.4 40-5.7 78.3 2 110.8 3.6 15 6 22 12 34.6 20.9 44.4 57.3 69 108 72.9 21.7 1.6 47.8-5.4 69.2-18.6 10.8-6.7 28.1-23.5 34.8-33.9 15.1-23.2 22.3-51.3 19.7-76.6-5.8-56-45.3-98-101.7-107.8-11.7-2.1-32.8-2.1-43.5 0-4.6.8-12.1 2.8-16.7 4.3-6.2 2.1-8.3 2.5-8.3 1.5 0-2.7 10.3-32.2 15.2-43.4 19.9-46.1 44.8-72.3 75.8-80 9.6-2.4 13.5-4.7 15.2-8.9 1.9-5 13.8-48.2 13.8-50.2 0-3.5-4.1-9.7-7.4-11.3-3.1-1.4-18.6-2.7-24.1-2zM429.5 42.6c-12.3 1.6-18.7 2.9-26 5.4C329.7 73 270 171.9 262 283c-3.8 51.5 6.1 98.9 27.6 131.7 6.5 10.1 23.8 27.8 32.7 33.7 23.5 15.3 56.4 23.6 82.7 20.6 67.3-7.6 115.3-68.9 105.6-134.8-5.8-39.1-29.5-72.2-64.1-89.5-18.1-9.1-32.5-12.7-53.6-13.4-17.8-.6-29.3.9-43.4 5.6-4.7 1.6-8.5 2.6-8.5 2.3 0-1.2 4.5-15.5 7.7-24.7 14.9-42.4 34.9-72.7 58-88.1 9-6.1 16.1-9.2 27.1-11.9 12.7-3.1 12.3-2.3 21.7-36.4 5.9-21.2 6.3-24.5 3-29.4-.9-1.4-3.1-3.2-4.8-4-3.2-1.5-18.6-2.8-24.2-2.1z"/></svg>